<svg width="134" height="71" viewBox="0 0 134 71" fill="none" xmlns="http://www.w3.org/2000/svg">
<path d="M55.2978 23L55.2978 37.5002L21.6515 60.2586L21.6516 45.5876L55.2978 23Z" fill="url(#paint0_linear_6_26)"/>
<path d="M33.5 16.7447L55.2978 23L21.6516 45.5876L0.500014 38.1941L33.5 16.7447Z" fill="#C3C3C3"/>
<path d="M0.500014 38.1941L21.6516 45.5876L21.6515 60.2586L0.499899 51.8651L0.500014 38.1941Z" fill="#628F1E"/>
<path d="M58.9999 8.54255e-05C58.9999 8.54255e-05 72.1169 4.05103 80.7484 6.85756C67.4147 15.1368 55.2978 23 55.2978 23L33.5 16.7447L58.9999 8.54255e-05Z" fill="#C3C3C3"/>
<path d="M102 13.5L124.656 21.2044L99.2053 38.1022L77.0031 29.8574L102 13.5Z" fill="#C3C3C3"/>
<path d="M77.0031 29.8574L99.2053 38.1022L86.48 46.5511L73.7546 55L51.5526 48.0813L77.0031 29.8574Z" fill="#C3C3C3"/>
<path d="M112.195 6.85758L134 15.2447L124.656 21.2044L102 13.5L112.195 6.85758Z" fill="#C3C3C3"/>
<path d="M80.7484 6.85756C87.6627 8.75451 102 13.5 102 13.5L77.0031 29.8574L55.2978 23C55.2978 23 67.4147 15.1368 80.7484 6.85756Z" fill="#C3C3C3"/>
<path d="M55.2978 37.5002L63 39.8844L77.0031 29.8574L55.2978 23L55.2978 37.5002Z" fill="#628F1E"/>
<path d="M99.2053 38.1022L99.2052 52.6684L73.7546 70.3001L73.7546 55L86.48 46.5511L99.2053 38.1022Z" fill="url(#paint1_linear_6_26)"/>
<path d="M124.656 21.2044L124.656 35.5L99.2052 52.6684L99.2053 38.1022L124.656 21.2044Z" fill="url(#paint2_linear_6_26)"/>
<path d="M134 15.2447L134 29L124.656 35.5L124.656 21.2044L134 15.2447Z" fill="url(#paint3_linear_6_26)"/>
<path d="M51.5 63L73.7546 70.3001L73.7546 55L51.5526 48.0813L51.5 63Z" fill="#628F1E"/>
<defs>
<linearGradient id="paint0_linear_6_26" x1="68.5" y1="-1.5" x2="113" y2="60" gradientUnits="userSpaceOnUse">
<stop stop-color="#628F1E"/>
<stop offset="0.9999" stop-color="#325B28"/>
<stop offset="1" stop-color="#456515"/>
</linearGradient>
<linearGradient id="paint1_linear_6_26" x1="68.5" y1="-1.5" x2="113" y2="60" gradientUnits="userSpaceOnUse">
<stop offset="0.681427" stop-color="#628F1E"/>
<stop offset="0.9999" stop-color="#325B28"/>
<stop offset="1" stop-color="#456515"/>
</linearGradient>
<linearGradient id="paint2_linear_6_26" x1="68.5" y1="-1.5" x2="113" y2="60" gradientUnits="userSpaceOnUse">
<stop offset="0.681427" stop-color="#628F1E"/>
<stop offset="0.9999" stop-color="#325B28"/>
<stop offset="1" stop-color="#456515"/>
</linearGradient>
<linearGradient id="paint3_linear_6_26" x1="68.5" y1="-1.5" x2="113" y2="60" gradientUnits="userSpaceOnUse">
<stop offset="0.681427" stop-color="#628F1E"/>
<stop offset="0.9999" stop-color="#325B28"/>
<stop offset="1" stop-color="#456515"/>
</linearGradient>
</defs>
</svg>
