<svg width="170" height="88" viewBox="0 0 170 88" fill="none" xmlns="http://www.w3.org/2000/svg">
<path d="M68.0003 75.5002L68.0003 87.527L0.849221 67.9477L0.849238 55.7108L68.0003 75.5002Z" fill="#628F1E"/>
<path d="M85.6046 0.328682L126.078 11.247L142.578 15.9995L170 23.7527L156.474 32.4999L71.2763 8.5L85.6046 0.328682Z" fill="#7FBA27"/>
<path d="M170 23.7527L170 36.455L156.474 45.1263L156.474 32.4999L170 23.7527Z" fill="#54B14B"/>
<path d="M156.474 32.4999L156.474 45.1263L71.2763 20.7174L71.2763 8.5L156.474 32.4999Z" fill="#628F1E"/>
<path d="M91.5002 14.197L105 17.9999L121.5 22.6479L131.5 25.4947L74.0785 61.0706L33.0002 49.7477L91.5002 14.197Z" fill="#7FBA27"/>
<path d="M131.5 25.4947L131.5 37.9714L74.0785 73.4714L74.0785 61.0706L131.5 25.4947Z" fill="url(#paint0_linear_6_19)"/>
<path d="M19.0568 45.5002L33.0002 49.7477L74.0785 61.0706L87.3023 64.0001L68.0003 75.5002L0.849238 55.7108L19.0568 45.5002Z" fill="#7FBA27"/>
<path d="M87.3023 64.0001L87.3023 76.1653L68.0003 87.527L68.0003 75.5002L87.3023 64.0001Z" fill="url(#paint1_linear_6_19)"/>
<defs>
<linearGradient id="paint0_linear_6_19" x1="84" y1="52" x2="92.5" y2="66.5" gradientUnits="userSpaceOnUse">
<stop stop-color="#628F1E"/>
<stop offset="1" stop-color="#456515"/>
</linearGradient>
<linearGradient id="paint1_linear_6_19" x1="70" y1="77.5" x2="74.5" y2="86.5" gradientUnits="userSpaceOnUse">
<stop stop-color="#628F1E"/>
<stop offset="0.9999" stop-color="#325B28"/>
<stop offset="1" stop-color="#456515"/>
</linearGradient>
</defs>
</svg>
