<svg width="61" height="40" viewBox="0 0 61 40" fill="none" xmlns="http://www.w3.org/2000/svg">
<path d="M21.5793 0.500011L37.0793 4.00002L53.0793 8.50002L58.3293 11.5L60.5793 15.5L58.5793 18.75L53.5793 21L44.8293 22L36.0793 21L26.8293 18.75L11.5793 15.5L5.73792 13.5154L1.90857 10.7577L0.0792847 7.99999L0.454285 4.87499L3.82928 1.74999L7.20428 0.624989L11.5793 0.499989L16.0793 0L21.5793 0.500011Z" fill="#7FBA27"/>
<path d="M26.8293 18.75L36.0793 21V35L26.8293 32.75V18.75Z" fill="#628F1E"/>
<path d="M36.0793 21L44.8293 22V36L36.0793 35V21Z" fill="#628F1E"/>
<path d="M5.73792 13.5154L11.5793 15.5V29.5L5.73792 27.5154V13.5154Z" fill="#628F1E"/>
<path d="M1.90857 10.7577L5.73792 13.5154V27.5154L1.9086 24.7577L1.90857 10.7577Z" fill="#628F1E"/>
<path d="M0 7.9923L1.90857 10.7577L1.9086 24.7577L0 21.9923V7.9923Z" fill="#628F1E"/>
<path d="M53.5793 21L58.5793 18.75V32.75L53.5793 35V21Z" fill="#628F1E"/>
<path d="M58.5793 18.75L60.5793 15.5V29.5L58.5793 32.75V18.75Z" fill="#628F1E"/>
<path d="M44.8293 22L53.5793 21V35L44.8293 36V22Z" fill="#628F1E"/>
<path d="M26.8293 18.75L15.25 26.25V39.25L26.8293 32.75V18.75Z" fill="url(#paint0_linear_6_43)"/>
<path d="M11.5793 15.5L0 22L15.25 26.25L26.8293 18.75L11.5793 15.5Z" fill="#7FBA27"/>
<defs>
<linearGradient id="paint0_linear_6_43" x1="11.5" y1="8" x2="30.2896" y2="39.25" gradientUnits="userSpaceOnUse">
<stop stop-color="#628F1E"/>
<stop offset="1" stop-color="#456515"/>
</linearGradient>
</defs>
</svg>
