<svg width="168" height="91" viewBox="0 0 168 91" fill="none" xmlns="http://www.w3.org/2000/svg">
<path d="M146.5 6.50007L168 14.5001L85 75.0001L65 67.7992L146.5 6.50007Z" fill="#7FBA27"/>
<path d="M16 49.5L29.5 54.3438L13.5 63.5L0 58.5L16 49.5Z" fill="#7FBA27"/>
<path d="M0 58.5L13.5 63.5L51.5 78.0001V91L1.81198e-05 71.5L0 58.5Z" fill="#628F1E"/>
<path d="M65 67.7992L85 75.0001V88L65 80.7992L65 67.7992Z" fill="#628F1E"/>
<path d="M65 67.7992L65 80.7992L51.5 91V78.0001L65 67.7992Z" fill="url(#paint0_linear_6_12)"/>
<path d="M168 14.5001L168 27.5001L85 88V75.0001L168 14.5001Z" fill="url(#paint1_linear_6_12)"/>
<path d="M112.5 0L140.5 11.0129L51.5 78.0001L13.5 63.5L112.5 0Z" fill="#7FBA27"/>
<defs>
<linearGradient id="paint0_linear_6_12" x1="90" y1="45.5" x2="119.5" y2="92" gradientUnits="userSpaceOnUse">
<stop stop-color="#628F1E"/>
<stop offset="1" stop-color="#456515"/>
</linearGradient>
<linearGradient id="paint1_linear_6_12" x1="90" y1="45.5" x2="119.5" y2="92" gradientUnits="userSpaceOnUse">
<stop stop-color="#628F1E"/>
<stop offset="1" stop-color="#456515"/>
</linearGradient>
</defs>
</svg>
