<svg width="65" height="21" viewBox="0 0 65 21" fill="none" xmlns="http://www.w3.org/2000/svg">
<path d="M64.5 4.82176L64.5 12.5377L40.2208 17.448L28.0812 19.9032L23.0113 20.4899L18 20.4899L18 12.5743L23.0113 12.5992L28.0812 12.0375L40.2208 9.63223L64.5 4.82176Z" fill="url(#paint0_linear_6_36)"/>
<path d="M0.114629 8.73318L8.70488 10.9027L13 11.9875L18 12.5743L18 20.4899L13 19.9032L8.70487 18.8184L0.1146 16.6488L0.114629 8.73318Z" fill="#628F1E"/>
<path d="M48.4998 0.180872L64.5 4.82176L40.2208 9.63223L28.0812 12.0375L23.0113 12.5992L18 12.5743L13 11.9875L8.70488 10.9027L0.114629 8.73318L11.9457 7.14224L24.1304 4.82178L48.4998 0.180872Z" fill="#7FBA27"/>
<defs>
<linearGradient id="paint0_linear_6_36" x1="38.8986" y1="-5.58289" x2="25.6464" y2="27.0252" gradientUnits="userSpaceOnUse">
<stop stop-color="#628F1E"/>
</linearGradient>
</defs>
</svg>
